<?xml version="1.0" encoding="UTF-8"?>
<svg version="1.1" xmlns="http://www.w3.org/2000/svg" width="4000" height="4000">
<path d="M0 0 C4.69513785 0.00754728 9.39019129 0.00480902 14.08532608 -0.00360364 C47.76615174 -0.06230147 81.34017538 0.38583534 114.97277725 2.25713855 C115.70047695 2.29707683 116.42817665 2.33701511 117.17792785 2.37816364 C126.01118136 2.86477549 134.8364433 3.43607619 143.66027725 4.06963855 C144.85360672 4.15395129 146.04693618 4.23826404 147.27642715 4.32513171 C247.73612467 11.46079575 347.78050456 25.69100109 586.97277725 85.25713855 C588.1894609 85.63035236 588.1894609 85.63035236 589.43072402 86.01110584 C601.31013356 89.66091809 613.15090871 93.42536205 624.97277725 97.25713855 C625.8264186 97.53323962 626.68005996 97.8093407 627.55956924 98.09380847 C715.29878034 126.49442576 800.60564469 161.7028937 942.2891835 232.13213855 C948.50792156 235.57243449 954.79108934 238.88950582 961.0711354 242.21584827 C973.84818415 248.98960381 986.48158962 255.96773693 998.97277725 263.25713855 C1000.63332391 264.22180865 1002.29387183 265.18647658 1003.95445144 266.15108997 C1027.0613654 279.58308408 1050.00322031 293.30035436 1072.52453506 307.69659168 C1075.17635123 309.38689971 1077.83604287 311.06438904 1080.49621475 312.74151355 C1111.96174339 332.64732531 1142.71504048 353.78555998 1172.81652725 375.69366199 C1174.98748712 377.26780454 1177.16626096 378.83047744 1179.34777725 380.38995105 C1189.34929281 387.54918623 1199.1676969 394.9235736 1208.9298085 402.40557605 C1212.70442718 405.2966216 1216.50303564 408.15202798 1220.32067764 410.98589832 C1227.08441093 416.00805644 1233.6745607 421.20149519 1240.18713272 426.54522449 C1244.20734004 429.8399586 1248.27180744 433.04960739 1252.41027725 436.19463855 C1263.38321391 444.5705109 1273.93358102 453.48589904 1284.44592178 462.42925769 C1287.71354231 465.20586473 1291.01627934 467.9326454 1294.34777725 470.63213855 C1304.07347068 478.55467423 1313.4867527 486.85876376 1322.781371 495.28057605 C1324.82816521 497.12670416 1326.89409281 498.94707139 1328.97277725 500.75713855 C1333.6898219 504.86797666 1338.32777853 509.06531044 1342.97277725 513.25713855 C1343.77715225 513.97901355 1344.58152725 514.70088855 1345.41027725 515.44463855 C1351.436093 520.85242191 1357.41698409 526.30780411 1363.37560928 531.78936511 C1365.02970486 533.30945418 1366.6866988 534.82634218 1368.343871 536.34307605 C1373.68887563 541.24471625 1378.95617186 546.17893297 1384.03846633 551.35526782 C1385.77634082 553.06399654 1387.55619771 554.63974378 1389.41784561 556.21050769 C1395.40143866 561.41558388 1400.9401116 567.08050925 1406.5391835 572.6907323 C1407.74394825 573.89482182 1408.94886127 575.09876299 1410.15391433 576.30256397 C1412.66767182 578.8148548 1415.17963161 581.32892545 1417.69030654 583.84429675 C1420.88977667 587.04946351 1424.09371643 590.25011871 1427.29902637 593.44944412 C1429.78456869 595.93135285 1432.26769967 598.41566319 1434.75013435 600.90067989 C1435.92981662 602.08102371 1437.11022679 603.26064056 1438.29141319 604.43947917 C1443.90395953 610.04331286 1449.48840119 615.63230567 1454.62229812 621.6864751 C1456.61540783 624.00454467 1458.7835782 626.12555 1460.97277725 628.25713855 C1464.54141211 631.73186197 1467.83090578 635.36050978 1471.08996475 639.1204198 C1474.29114854 642.7532985 1477.63670313 646.24850888 1480.97277725 649.75713855 C1485.55490163 654.57626936 1490.05700301 659.43812081 1494.4141835 664.46221668 C1496.4043024 666.75409546 1498.43557239 669.0070914 1500.47277725 671.25713855 C1507.37057312 678.90847515 1514.08905234 686.7069839 1520.78527725 694.5344823 C1522.88509725 696.9887756 1524.98930362 699.43918235 1527.09777725 701.8860448 C1532.31245643 707.94182798 1537.47265252 714.03022508 1542.51183975 720.23370105 C1544.97150253 723.25557247 1547.44746585 726.26335619 1549.92736709 729.26861316 C1570.25218078 753.90215469 1570.25218078 753.90215469 1579.3204335 765.7922948 C1581.87064446 769.13472816 1584.45718176 772.448156 1587.04528701 775.76128894 C1594.13636387 784.8424391 1601.1097967 794.00254585 1607.97277725 803.25713855 C1608.80011367 804.37258044 1608.80011367 804.37258044 1609.64416397 805.51055652 C1637.34259803 842.89758247 1663.76084099 881.1499037 1688.97277725 920.25713855 C1689.52159561 921.10727527 1690.07041397 921.95741199 1690.63586318 922.83331043 C1716.47827653 962.93204636 1740.8281871 1004.14618318 1763.33654678 1046.20684558 C1765.0070436 1049.32101856 1766.68995798 1052.42822404 1768.375121 1055.5344823 C1783.98225485 1084.37785601 1799.10358671 1113.53564007 1812.97277725 1143.25713855 C1813.61798957 1144.63146351 1814.26351599 1146.00564104 1814.90930068 1147.37969714 C1832.8018382 1185.48351503 1849.52189729 1224.09872388 1864.97277725 1263.25713855 C1865.27788223 1264.0302135 1865.58298721 1264.80328845 1865.89733779 1265.59978992 C1875.83916299 1290.82902519 1885.15173955 1316.26555147 1894.12762344 1341.85314685 C1894.92155768 1344.11144741 1895.72019509 1346.36800745 1896.52111709 1348.62383777 C1928.80979034 1439.63635145 1952.63533379 1533.90527338 2003.97277725 2000.25713855 C1655.49277725 2000.25713855 1307.01277725 2000.25713855 947.97277725 2000.25713855 C953.58672106 1994.64319474 953.58672106 1994.64319474 956.1016835 1992.53057605 C956.65565811 1992.06176013 957.20963272 1991.59294421 957.78039443 1991.10992175 C958.35950576 1990.6222533 958.93861709 1990.13458484 959.53527725 1989.63213855 C965.2099081 1984.81229197 970.74313776 1979.86846382 976.203246 1974.8079198 C978.61660889 1972.58517514 981.06713635 1970.41836038 983.53527725 1968.25713855 C988.74904335 1963.57833542 993.69973941 1958.63954593 998.66027725 1953.69463855 C999.4686 1952.89090808 1000.27692276 1952.08717761 1001.10974014 1951.25909168 C1005.36991363 1946.98796883 1009.47280205 1942.64183833 1013.40661514 1938.06841785 C1015.65695822 1935.46587765 1018.00273105 1932.96221818 1020.34777725 1930.44463855 C1025.46282952 1924.90048585 1030.25905263 1919.14734651 1034.97277725 1913.25713855 C1035.895181 1912.12629899 1036.8183992 1910.9961234 1037.7423085 1909.86651355 C1058.42461478 1884.47165252 1076.94507074 1856.80891665 1092.97277725 1828.25713855 C1093.49887588 1827.32305164 1094.02497451 1826.38896472 1094.56701553 1825.42657214 C1137.36786497 1749.00106736 1163.2945997 1662.74438672 1168.97277725 1575.25713855 C1169.03632904 1574.28008456 1169.03632904 1574.28008456 1169.1011647 1573.28329211 C1169.91804148 1560.37612947 1170.17521643 1547.50088116 1170.16027725 1534.56963855 C1170.15937088 1533.10355151 1170.15937088 1533.10355151 1170.15844619 1531.60784656 C1170.00805056 1441.27876149 1149.05479068 1352.5931922 1109.97277725 1271.25713855 C1109.52079971 1270.30935535 1109.06882217 1269.36157214 1108.60314834 1268.38506824 C1101.49540306 1253.54677414 1093.45762833 1239.34729143 1084.97277725 1225.25713855 C1084.14858291 1223.8816283 1084.14858291 1223.8816283 1083.30773818 1222.47832996 C1075.40856937 1209.33759001 1066.93790261 1196.6923152 1057.97277725 1184.25713855 C1057.39382705 1183.45002429 1056.81487686 1182.64291003 1056.21838272 1181.81133777 C1047.90548788 1170.2503121 1039.18437824 1159.11451741 1029.97277725 1148.25713855 C1029.42766494 1147.61292957 1028.88255264 1146.96872058 1028.32092178 1146.30499011 C1016.03888806 1131.83513843 1002.99533061 1118.19067983 989.59777725 1104.75713855 C989.03370162 1104.19038409 988.469626 1103.62362964 987.88845718 1103.03970081 C981.76479096 1096.89398498 975.60857801 1090.85557164 968.97277725 1085.25713855 C967.87802334 1084.30777413 966.78424305 1083.35728561 965.69152725 1082.40557605 C933.93460358 1054.97847482 899.70858947 1030.59516032 862.97277725 1010.25713855 C861.36886123 1009.35970935 861.36886123 1009.35970935 859.73254287 1008.44415027 C792.1212591 970.74840988 717.08407333 947.62673862 555.06578278 934.87173589 C548.97810359 934.87946039 542.890446 934.86952177 536.80277002 934.86200589 C526.17050035 934.85124888 515.53828224 934.85134836 504.90601432 934.85914737 C493.51751079 934.86744976 482.12903413 934.86910352 470.74052894 934.86293536 C470.01674557 934.86254785 469.29296219 934.86216033 468.54724599 934.86176107 C465.59858353 934.86016096 462.6499211 934.85851479 459.7012587 934.85681024 C432.34194591 934.84100587 404.98265109 934.83983784 377.62333572 934.84825259 C351.2669795 934.85635478 324.91063177 934.85951036 298.55427444 934.85569125 C296.89445016 934.85545881 295.23462589 934.85522734 293.57480161 934.85499684 C286.90354191 934.85406533 280.23228221 934.85310932 273.56102251 934.85211755 C254.91566359 934.84936743 236.27030463 934.84765497 217.62494552 934.84675914 C216.77609813 934.8467182 215.92725074 934.84667727 215.0526807 934.84663509 C188.03165777 934.84540847 161.01063743 934.84878164 133.98961532 934.85530788 C133.114071 934.85551862 132.23852668 934.85572937 131.33645071 934.8559465 C117.12095317 934.85938076 102.9054557 934.86303942 88.68995823 934.86671703 C32.32051965 934.88128442 -24.04889755 934.88060826 -80.41833603 934.86602527 C-94.62691094 934.86236127 -108.83548586 934.85872794 -123.04406083 934.85530788 C-124.35662706 934.85499086 -124.35662706 934.85499086 -125.69570978 934.85466744 C-152.69027054 934.84819244 -179.68482952 934.84545727 -206.67939103 934.84675914 C-207.52760379 934.84679989 -208.37581656 934.84684065 -209.24973274 934.84688263 C-227.87487488 934.84782034 -246.50001683 934.84972179 -265.12515878 934.85249065 C-271.79021629 934.85347794 -278.4552738 934.8544172 -285.12033131 934.85534278 C-286.77820613 934.85557495 -288.43608095 934.85581114 -290.09395576 934.85605137 C-316.43653513 934.85985807 -342.77910516 934.85560298 -369.1216833 934.84750094 C-396.40709085 934.83920068 -423.69247693 934.84232181 -450.97788143 934.85809483 C-453.91691241 934.85975165 -456.85594342 934.86136179 -459.79497445 934.86293536 C-460.87680155 934.86352129 -460.87680155 934.86352129 -461.98048375 934.86411906 C-473.33077232 934.87000136 -484.68103386 934.86595404 -496.03131998 934.85762835 C-507.23273692 934.84962857 -518.43410938 934.85284128 -529.63552435 934.86667061 C-535.60987209 934.8737487 -541.58411913 934.87637052 -547.55846339 934.86545266 C-628.35642324 934.72894075 -706.01711331 947.37473552 -823.02722275 995.25713855 C-824.41095078 995.92011951 -824.41095078 995.92011951 -825.82263291 996.59649402 C-846.32855642 1006.46229716 -865.96795247 1017.83993421 -885.02722275 1030.25713855 C-885.68093857 1030.68059558 -886.33465439 1031.10405261 -887.00817978 1031.54034168 C-906.15480243 1043.97308558 -924.49083441 1057.64754659 -942.02722275 1072.25713855 C-942.53753037 1072.68107898 -943.04783799 1073.10501941 -943.57360947 1073.54180652 C-951.09589341 1079.80160924 -958.40023234 1086.25300679 -965.56970322 1092.91290027 C-966.97321519 1094.20732856 -968.39252158 1095.48456709 -969.812379 1096.7610448 C-976.16370212 1102.48335105 -982.28438814 1108.4096404 -988.33972275 1114.44463855 C-989.09269639 1115.1930199 -989.84567002 1115.94140125 -990.62146103 1116.71246082 C-994.73150819 1120.83387677 -998.67174646 1125.0451149 -1002.47033799 1129.4551366 C-1004.56165848 1131.87571627 -1006.73170908 1134.22007577 -1008.90222275 1136.56963855 C-1012.94001598 1141.00210329 -1016.8002971 1145.53456032 -1020.562379 1150.20245105 C-1022.3680745 1152.44025435 -1024.18701587 1154.66195754 -1026.0233165 1156.87432605 C-1049.77421884 1185.5881035 -1070.07405257 1217.32824141 -1087.82702744 1250.04913074 C-1088.61445345 1251.49776395 -1089.40662029 1252.94383236 -1090.20398057 1254.38702136 C-1103.75902664 1278.93934506 -1114.61894508 1304.86815431 -1124.02722275 1331.25713855 C-1124.6607164 1333.02395984 -1124.6607164 1333.02395984 -1125.30700791 1334.82647449 C-1146.82570101 1395.42271744 -1157.4137189 1459.06499526 -1159.02722275 1523.25713855 C-1159.05058701 1524.10002429 -1159.07395127 1524.94291003 -1159.09802353 1525.81133777 C-1161.06196626 1606.23396702 -1144.73992965 1688.82180594 -1093.02722275 1807.25713855 C-1092.57250596 1808.16383289 -1092.11778916 1809.07052722 -1091.64929307 1810.00469714 C-1073.62532879 1845.67164259 -1050.99366705 1879.76055742 -1025.47595322 1910.50420886 C-1023.40728237 1913.00725179 -1021.3774006 1915.54134231 -1019.33972275 1918.06963855 C-1015.50504459 1922.75568563 -1011.47471887 1927.23603767 -1007.374879 1931.6907323 C-1005.32398177 1933.93272811 -1003.32244742 1936.20504884 -1001.33972275 1938.50713855 C-998.61674055 1941.64462625 -995.739914 1944.5661025 -992.77722275 1947.47588855 C-990.94479788 1949.34103529 -989.23369141 1951.27641601 -987.52722275 1953.25713855 C-982.41661481 1959.16450052 -976.90081483 1964.42421993 -970.984254 1969.51495105 C-969.14185595 1971.15508984 -967.42733639 1972.85821416 -965.71472275 1974.63213855 C-962.02678441 1978.38713032 -957.97303737 1981.61820735 -953.87878525 1984.9172948 C-947.99153214 1989.74806825 -942.41071437 1994.87364693 -937.02722275 2000.25713855 C-1285.50722275 2000.25713855 -1633.98722275 2000.25713855 -1993.02722275 2000.25713855 C-1993.02722275 1941.7538539 -1993.02722275 1941.7538539 -1992.27722275 1924.44463855 C-1992.21336884 1922.87069324 -1992.21336884 1922.87069324 -1992.14822495 1921.26495105 C-1988.00778498 1819.73692106 -1976.33241092 1718.8018671 -1846.02722275 1244.25713855 C-1845.77752732 1243.64922473 -1845.52783188 1243.04131091 -1845.27056992 1242.41497546 C-1833.40448199 1213.55507186 -1820.85938902 1184.97989933 -1807.64196885 1156.71319324 C-1806.50647943 1154.28289567 -1805.37370066 1151.85148787 -1804.24450791 1149.41827136 C-1791.29040112 1121.51155506 -1777.89410392 1093.7774128 -1763.32458603 1066.67217761 C-1761.80130652 1063.83659596 -1760.2877229 1060.99590612 -1758.7733165 1058.15557605 C-1751.622986 1044.77728185 -1744.30450677 1031.50653491 -1736.78259385 1018.33379871 C-1735.21611979 1015.58822067 -1733.65429592 1012.84005006 -1732.09430039 1010.09078723 C-1723.92610833 995.69870852 -1715.65285411 981.38128416 -1707.02722275 967.25713855 C-1706.41910752 966.26004871 -1705.81099228 965.26295886 -1705.18444932 964.23565418 C-1682.44186658 926.99170336 -1658.85561775 890.18658784 -1633.65026963 854.55499011 C-1632.08762874 852.34265918 -1630.53271787 850.12512214 -1628.98034775 847.90557605 C-1622.07548238 838.0484658 -1614.97936333 828.34200592 -1607.81384385 818.67315418 C-1606.03137183 816.26274927 -1604.25655717 813.84690298 -1602.484254 811.42901355 C-1594.79172159 800.93890597 -1586.97843401 790.55245691 -1579.02722275 780.25713855 C-1578.1764415 779.15305652 -1578.1764415 779.15305652 -1577.30847275 778.0266698 C-1570.55317182 769.2658889 -1563.718849 760.58108798 -1556.71301377 752.01910144 C-1553.23784014 747.76754232 -1549.83358497 743.46821964 -1546.46472275 739.13213855 C-1542.24906719 733.71837355 -1537.85690541 728.48333297 -1533.36682236 723.29571277 C-1530.36436317 719.82574937 -1527.41824186 716.3213372 -1524.52722275 712.75713855 C-1519.66921785 706.78074402 -1514.65981365 700.94102638 -1509.62732041 695.11163074 C-1508.00157141 693.22740898 -1506.37954218 691.34002867 -1504.7576915 689.45245105 C-1498.76284026 682.489857 -1492.6768854 675.63379078 -1486.44128525 668.8860448 C-1484.4359814 666.7022754 -1482.46856205 664.4974993 -1480.52722275 662.25713855 C-1477.15926299 658.37351031 -1473.68499243 654.59033012 -1470.20373642 650.80865222 C-1467.39040916 647.75081239 -1464.60394105 644.67211683 -1461.83972275 641.56963855 C-1452.38578517 631.04640461 -1442.68884102 620.71845554 -1432.5545665 610.8469823 C-1430.57811248 608.82165152 -1428.73852637 606.78013216 -1426.90026963 604.63457996 C-1422.95662201 600.11325828 -1418.77789003 595.86350239 -1414.531129 591.6282323 C-1413.73875336 590.83489993 -1412.94637772 590.04156757 -1412.1299907 589.22419482 C-1410.46471992 587.55824774 -1408.79820247 585.89354599 -1407.13049424 584.23003894 C-1404.59687653 581.70177721 -1402.06864108 579.16822194 -1399.54089463 576.63409168 C-1397.91295992 575.00681785 -1396.28471501 573.3798543 -1394.656129 571.7532323 C-1393.91004883 571.0051279 -1393.16396866 570.2570235 -1392.39528 569.48624927 C-1388.33074901 565.43957306 -1384.1833565 561.55709201 -1379.82176316 557.83149463 C-1376.73841576 555.12646402 -1373.89509588 552.18671256 -1371.02722275 549.25713855 C-1366.73480305 544.91449508 -1362.41187702 540.7103807 -1357.749879 536.7610448 C-1355.92291768 535.16607857 -1354.22662989 533.48696013 -1352.52722275 531.75713855 C-1349.60335288 528.78737834 -1346.54140721 526.05207476 -1343.38659775 523.3313573 C-1340.42857053 520.73083999 -1337.54052563 518.05959197 -1334.65222275 515.38213855 C-1319.91101446 501.74102043 -1319.91101446 501.74102043 -1312.65222275 495.88213855 C-1308.63895725 492.63761123 -1304.80309149 489.26964531 -1301.02722275 485.75713855 C-1296.47475519 481.52640788 -1291.78108747 477.53438693 -1286.94128525 473.6360448 C-1283.58739356 470.89808228 -1280.305457 468.08479298 -1277.02722275 465.25713855 C-1271.10506526 460.158212 -1265.09924453 455.1771562 -1259.02722275 450.25713855 C-1257.77821407 449.23798803 -1256.52953823 448.21842953 -1255.281129 447.1985448 C-1247.2209909 440.62028034 -1239.10908876 434.11617181 -1230.9036876 427.72002918 C-1228.8977696 426.15621697 -1226.89417838 424.58944917 -1224.890504 423.02276355 C-1207.13941059 409.16123336 -1189.22283077 395.5303763 -1171.02722275 382.25713855 C-1170.30003037 381.7255614 -1169.57283799 381.19398425 -1168.82360947 380.64629871 C-1156.03593645 371.30885755 -1143.05858926 362.25045536 -1130.02722275 353.25713855 C-1129.19013779 352.67931628 -1128.35305283 352.10149402 -1127.49060166 351.50616199 C-1102.37660417 334.19422606 -1076.90566794 317.40490638 -1051.02722275 301.25713855 C-1049.59346299 300.36236804 -1049.59346299 300.36236804 -1048.13073838 299.44952136 C-1004.95137208 272.56243353 -960.61230548 247.50987453 -915.46472275 224.08526355 C-911.29436726 221.92101305 -907.13887586 219.73055402 -902.9896251 217.52618152 C-882.46742716 206.64179622 -861.5979347 196.5468664 -840.48913682 186.85577136 C-837.17838184 185.32694036 -833.87850063 183.77717886 -830.58191025 182.21807605 C-732.52816142 135.94344498 -629.27330077 98.75998739 -132.77722275 4.06963855 C-131.68129807 3.99064319 -130.58537339 3.91164783 -129.45623887 3.83025867 C-120.98413838 3.22703808 -112.50829606 2.71606285 -104.02722275 2.25713855 C-103.23218968 2.21373592 -102.43715661 2.17033328 -101.61803162 2.12561542 C-67.74505171 0.29530483 -33.91694682 -0.06082629 0 0 Z " fill="#3AB251" transform="translate(1996.027222752571,-0.25713855028152466)"/>
<path d="M0 0 C204.27 0 408.54 0 619 0 C622.96 12.54 626.92 25.08 631 38 C633.23776063 44.82646684 635.47989317 51.64405648 637.8125 58.4375 C638.09481476 59.26244965 638.37712952 60.08739929 638.66799927 60.93734741 C656.96113284 114.25416647 679.28203227 166.17859896 704 216.8125 C704.42903625 217.69221466 704.85807251 218.57192932 705.30010986 219.478302 C713.65576117 236.5760942 722.47597507 253.4105757 731.6875 270.0625 C732.02282745 270.6690744 732.35815491 271.2756488 732.7036438 271.90060425 C759.06860244 319.55562707 787.83991587 365.82217526 819.61523438 410.07080078 C821.0976158 412.13599437 822.57213921 414.20668485 824.046875 416.27734375 C832.45303854 428.03925087 841.17625233 439.54910304 850 451 C850.63679687 451.82661133 851.27359375 452.65322266 851.9296875 453.50488281 C858.82692484 462.44481855 865.79935792 471.30205994 873 480 C874.4588499 481.79124608 875.91717024 483.58292356 877.375 485.375 C882.508524 491.64733002 887.7440162 497.83031331 893 504 C893.49967285 504.58749023 893.9993457 505.17498047 894.51416016 505.78027344 C900.25348035 512.52447619 906.03760284 519.21380277 911.98828125 525.7734375 C913.84734669 527.83104391 915.67928358 529.90846763 917.5 532 C925.51785459 541.18674456 933.79865583 550.11988058 942.140625 559.01123047 C943.91400823 560.90802403 945.67698452 562.81392386 947.4375 564.72265625 C956.40873361 574.40548216 965.6761811 583.78357993 975 593.125 C975.63237579 593.75996399 976.26475159 594.39492798 976.91629028 595.0491333 C985.91805927 604.08760399 985.91805927 604.08760399 995.3984375 612.61669922 C997.72330224 614.62473026 999.85791909 616.80002502 1002 619 C1005.44776683 622.48433405 1008.95913934 625.78212816 1012.68359375 628.96484375 C1015.16859587 631.14812554 1017.57866655 633.39915383 1019.98974609 635.66333008 C1025.59425259 640.92628146 1031.2836895 645.94999189 1037.2890625 650.7578125 C1040.28905961 653.23907812 1043.15130287 655.84888189 1046 658.5 C1050.57924849 662.75535938 1055.29286588 666.77323156 1060.1640625 670.6953125 C1063.2558819 673.2079481 1066.28424234 675.7866213 1069.3125 678.375 C1075.48559017 683.63056785 1081.828989 688.64616691 1088.22949219 693.62060547 C1090.59417065 695.46291563 1092.94786325 697.31899319 1095.30175781 699.17504883 C1108.67851644 709.71583076 1122.24847566 719.95349175 1136 730 C1136.73879395 730.54027832 1137.47758789 731.08055664 1138.23876953 731.63720703 C1159.39188735 747.08226517 1180.9774901 761.82241852 1203 776 C1203.83950195 776.54076172 1204.67900391 777.08152344 1205.54394531 777.63867188 C1241.49731559 800.72689045 1278.58251287 821.81447891 1316.44140625 841.609375 C1319.49927389 843.20865352 1322.54778598 844.82398139 1325.58984375 846.453125 C1337.88281568 853.02120641 1350.37046413 859.10717216 1363 865 C1363.61852844 865.28917297 1364.23705688 865.57834595 1364.87432861 865.87628174 C1411.86715557 887.83679486 1459.8664586 907.35074067 1509 924 C1509.8428656 924.2857489 1510.6857312 924.5714978 1511.55413818 924.86590576 C1607.12129434 957.19412452 1705.81064914 979.30096822 1886 997 C1887.09022461 997.06670898 1888.18044922 997.13341797 1889.30371094 997.20214844 C1895.53369832 997.57170543 1901.76184078 997.81858926 1908 998 C1908.71395935 998.02084656 1909.4279187 998.04169312 1910.16351318 998.06317139 C1932.10359608 998.69729077 1954.04983931 999.30363505 1976 999 C1976.69154175 998.99139954 1977.3830835 998.98279907 1978.09558105 998.97393799 C2074.04598967 997.76624022 2169.47640802 987.03085953 2558 867 C2558.97388672 866.54125488 2559.94777344 866.08250977 2560.95117188 865.60986328 C2587.07311137 853.28221708 2613.14657575 840.61454123 2638.34667969 826.48486328 C2641.22736614 824.87276032 2644.1171479 823.27773052 2647.0078125 821.68359375 C2670.13837877 808.88516117 2692.65546037 795.11763739 2715 781 C2716.02625488 780.35417969 2717.05250977 779.70835937 2718.10986328 779.04296875 C2732.44641131 770.01221261 2746.46623402 760.62389404 2760.3203125 750.87109375 C2763.68845033 748.51928905 2767.08977104 746.21905787 2770.49462891 743.92089844 C2778.77889699 738.32328222 2786.7763713 732.45061115 2794.67578125 726.32421875 C2799.28556492 722.75743971 2803.98299445 719.31530748 2808.6875 715.875 C2821.51238149 706.46982931 2833.87668393 696.53647651 2846.19140625 686.4765625 C2847.7923548 685.16952459 2849.39597976 683.86576644 2851 682.5625 C2856.44216357 678.13283197 2861.81842676 673.63231063 2867.16259766 669.08544922 C2870.59079494 666.1738714 2874.05992273 663.32222054 2877.5625 660.5 C2882.63607493 656.37309794 2887.43741142 651.99897442 2892.23046875 647.5546875 C2894.45918393 645.49886278 2896.70767919 643.48383043 2899 641.5 C2903.87932693 637.26454302 2908.62048644 632.87890225 2913.37060547 628.5 C2915.03726259 626.96569653 2916.70777523 625.43567833 2918.37890625 623.90625 C2923.72439217 619.0050642 2928.99100008 614.07024483 2934.07348633 608.89404297 C2935.76885541 607.22724873 2937.50009478 605.69844262 2939.3203125 604.171875 C2945.36437017 598.91668776 2950.95800056 593.1908685 2956.60913086 587.52124023 C2958.5579687 585.56704376 2960.51209272 583.61824853 2962.46679688 581.66992188 C2968.01644636 576.12292896 2973.52164898 570.59697135 2978.60522461 564.61303711 C2980.77571312 562.10289925 2983.12573677 559.81839821 2985.5 557.5 C2989.15961131 553.88927427 2992.65439187 550.20318826 2995.9921875 546.29296875 C2998.7603822 543.13162577 3001.63220658 540.07088009 3004.5 537 C3009.09101021 532.07392659 3013.62172152 527.11722843 3018 522 C3018.88791299 520.96605322 3019.77594505 519.93220867 3020.6640625 518.8984375 C3022.71901882 516.50504964 3024.77050196 514.10873322 3026.8203125 511.7109375 C3028.88970698 509.2917862 3030.96777307 506.88061267 3033.0546875 504.4765625 C3038.5413373 498.14314716 3043.86216912 491.72227406 3049.00073242 485.1027832 C3051.88296917 481.39601439 3054.84197074 477.7733233 3057.875 474.1875 C3062.5617332 468.61732508 3066.98203599 462.86565794 3071.35888672 457.04956055 C3072.13256592 456.02536011 3072.13256592 456.02536011 3072.921875 454.98046875 C3073.59621582 454.08171021 3073.59621582 454.08171021 3074.28417969 453.16479492 C3075.13351074 452.09322144 3075.13351074 452.09322144 3076 451 C3076.35501762 450.43491643 3076.71003524 449.86983286 3077.07581098 449.28762555 C3079.17600281 446.29740201 3080.80470236 444.32164517 3084.41128026 443.35114349 C3087.4596748 443.10684094 3090.44068119 443.08705752 3093.49865532 443.1386652 C3095.25397412 443.12654983 3095.25397412 443.12654983 3097.04475391 443.11418971 C3100.29941927 443.09882988 3103.55219585 443.11491924 3106.80671087 443.14413665 C3110.34455833 443.1681815 3113.88225079 443.15157969 3117.42012894 443.14009422 C3123.62255801 443.12557472 3129.82451721 443.13708901 3136.02689171 443.16556168 C3145.24951294 443.20778159 3154.47183749 443.20991477 3163.69453775 443.20376776 C3179.20790532 443.19456665 3194.72106432 443.21797449 3210.23437119 443.2598896 C3225.59714667 443.30129172 3240.9598353 443.32824775 3256.32266617 443.3358593 C3257.27744666 443.33634048 3258.23222716 443.33682165 3259.21594039 443.33731741 C3264.06467751 443.3396857 3268.9134147 443.34179541 3273.76215197 443.34380554 C3308.1165589 443.35851315 3342.47085233 443.40568779 3376.82519531 443.47192383 C3410.20246781 443.53620183 3443.57970927 443.58579348 3476.95703125 443.61547852 C3477.98564662 443.6163992 3479.01426198 443.61731988 3480.07404751 443.61826846 C3490.40371211 443.62749801 3500.73337695 443.63642872 3511.063042 443.64514048 C3532.10624882 443.66289455 3553.14945361 443.68264332 3574.19265747 443.70359802 C3575.1602156 443.70455905 3576.12777373 443.70552008 3577.1246518 443.70651023 C3641.74981509 443.77092802 3706.37491537 443.88184596 3771 444 C3769.61940278 448.2408167 3768.05106479 452.1810652 3766.09375 456.19140625 C3765.51979492 457.37299316 3764.94583984 458.55458008 3764.35449219 459.77197266 C3763.73640369 461.03551874 3763.11823793 462.29902703 3762.5 463.5625 C3761.22256924 466.18552288 3759.94733392 468.80961162 3758.671875 471.43359375 C3758.35526917 472.08396606 3758.03866333 472.73433838 3757.71246338 473.40441895 C3755.42406825 478.11004925 3753.1789689 482.83484504 3750.95239258 487.57006836 C3746.79799667 496.39763246 3742.41253648 505.06486598 3737.8203125 513.671875 C3735.67296255 517.70496882 3733.57490425 521.76128165 3731.4921875 525.828125 C3724.62936173 539.22756886 3717.5874191 552.47707951 3710.1015625 565.54296875 C3707.54657831 570.00981883 3705.07899542 574.51759275 3702.64086914 579.04907227 C3695.83464023 591.69770495 3688.56252544 604.05040211 3681.17675781 616.3671875 C3679.30034581 619.49659482 3677.43090346 622.63010929 3675.56307983 625.76464844 C3667.37824122 639.49762505 3659.13243946 653.18024291 3650.50683594 666.64257812 C3648.83256268 669.26195314 3647.16960113 671.88831269 3645.5078125 674.515625 C3644.29696918 676.42714299 3643.08603322 678.33860231 3641.875 680.25 C3641.33713867 681.10078125 3640.79927734 681.9515625 3640.24511719 682.828125 C3632.01232349 695.78724357 3623.35956323 708.47701771 3614.75 721.1875 C3614.2960083 721.85776215 3613.8420166 722.52802429 3613.37426758 723.21859741 C3601.53611662 740.68618568 3589.43750628 757.95340893 3577 775 C3576.44876465 775.75603516 3575.8975293 776.51207031 3575.32958984 777.29101562 C3567.94475046 787.40443281 3560.4372729 797.41794229 3552.82763672 807.36328125 C3549.27890262 812.00187906 3545.75534161 816.6563261 3542.27368164 821.34545898 C3536.76017449 828.76773586 3531.0230414 835.9724342 3525.16015625 843.12109375 C3522.17536347 846.76695411 3519.26785898 850.46855465 3516.375 854.1875 C3511.92992823 859.88901533 3507.31078234 865.42030863 3502.6171875 870.91796875 C3500.20503476 873.74683013 3497.84580002 876.61575122 3495.5 879.5 C3490.41710192 885.73851256 3485.21818875 891.87467867 3480 898 C3479.50032715 898.58749023 3479.0006543 899.17498047 3478.48583984 899.78027344 C3473.49499408 905.64495334 3468.49541946 911.49079548 3463.3125 917.1875 C3460.21031992 920.59821516 3457.26761726 924.0973376 3454.375 927.6875 C3451.31342275 931.47194966 3448.15436499 934.96488014 3444.66015625 938.34765625 C3442.95615774 940.04363594 3441.38285917 941.80489696 3439.8125 943.625 C3434.69204649 949.55334728 3429.33138285 955.26216823 3424 961 C3423.40638672 961.64018066 3422.81277344 962.28036133 3422.20117188 962.93994141 C3420.36490958 964.91981383 3418.52653859 966.8977064 3416.6875 968.875 C3416.12538818 969.48093994 3415.56327637 970.08687988 3414.98413086 970.71118164 C3412.2158851 973.6813762 3409.41274273 976.59643834 3406.51953125 979.4453125 C3404.24952626 981.69515602 3402.11915393 983.99607537 3400.05712891 986.43676758 C3394.84690346 992.42165103 3389.17973856 997.96423128 3383.56640625 1003.56640625 C3382.36231673 1004.771171 3381.15837556 1005.97608402 3379.95457458 1007.18113708 C3377.44228375 1009.69489458 3374.9282131 1012.20685437 3372.4128418 1014.7175293 C3369.20767504 1017.91699942 3366.00701984 1021.12093918 3362.80769444 1024.32624912 C3360.3257857 1026.81179145 3357.84147536 1029.29492242 3355.35645866 1031.7773571 C3354.17611485 1032.95703938 3352.996498 1034.13744954 3351.81765938 1035.31863594 C3346.21382569 1040.93118228 3340.62483288 1046.51562394 3334.57066345 1051.64952087 C3332.25259388 1053.64263058 3330.13158855 1055.81080095 3328 1058 C3324.52527658 1061.56863486 3320.89662877 1064.85812853 3317.13671875 1068.1171875 C3313.50384005 1071.31837129 3310.00862967 1074.66392589 3306.5 1078 C3301.67694848 1082.58585226 3296.81027752 1087.08990459 3291.78173828 1091.45019531 C3289.55134958 1093.39024841 3287.36921987 1095.38050303 3285.1875 1097.375 C3281.74621795 1100.48528851 3278.23678702 1103.46478312 3274.625 1106.375 C3270.6117345 1109.61952732 3266.77586874 1112.98749324 3263 1116.5 C3258.44405527 1120.7339621 3253.74728841 1124.72931665 3248.90234375 1128.62890625 C3245.61037897 1131.31830412 3242.39975503 1134.09148901 3239.1875 1136.875 C3233.96957113 1141.38467418 3228.63238559 1145.69778138 3223.18261719 1149.9230957 C3219.17921842 1153.03877944 3215.28823631 1156.26054293 3211.4375 1159.5625 C3205.72255381 1164.45120961 3199.81403489 1169.05357212 3193.82666016 1173.60302734 C3191.11768557 1175.67476653 3188.43124233 1177.77503835 3185.74316406 1179.8737793 C3164.17263784 1196.71372102 3142.33943643 1213.19187855 3120 1229 C3119.38044434 1229.43957031 3118.76088867 1229.87914063 3118.12255859 1230.33203125 C3113.87320866 1233.34680862 3109.61525285 1236.34908405 3105.35205078 1239.34423828 C3103.78601358 1240.44667386 3102.2218764 1241.5518135 3100.65966797 1242.65966797 C3087.04578336 1252.31304963 3073.1859208 1261.57001116 3059.25 1270.75 C3057.95956787 1271.60091721 3057.95956787 1271.60091721 3056.64306641 1272.46902466 C3044.51868679 1280.45779457 3032.30573973 1288.29366392 3020 1296 C3018.99195312 1296.63212402 3017.98390625 1297.26424805 3016.9453125 1297.91552734 C2980.61104931 1320.6314943 2943.52733811 1342.08011326 2905.83642578 1362.46044922 C2903.00857219 1363.9953472 2900.18963851 1365.54574301 2897.37109375 1367.09765625 C2881.3825516 1375.84008354 2865.12612044 1384.04558252 2848.83480072 1392.20553589 C2847.0386248 1393.10564416 2845.24321126 1394.00727326 2843.44781494 1394.90893555 C2826.11081059 1403.60756981 2808.63902702 1411.93451775 2791 1420 C2790.12398132 1420.40138184 2789.24796265 1420.80276367 2788.34539795 1421.21630859 C2783.21946017 1423.5625837 2778.08352835 1425.88563573 2772.9375 1428.1875 C2772.16338776 1428.53384491 2771.38927551 1428.88018982 2770.59170532 1429.23703003 C2724.68161491 1449.7369948 2677.91320415 1468.11691878 2630.58740234 1485.07287598 C2628.8647751 1485.69013178 2627.14244318 1486.30821238 2625.42041016 1486.92712402 C2532.59136964 1520.28673712 2437.00458384 1545.63549818 2072.5625 1597.75 C2071.50885254 1597.80907532 2070.45520508 1597.86815063 2069.36962891 1597.92901611 C2044.09080017 1599.32404992 2018.84135554 1600.16010121 1993.5234375 1600.203125 C1990.95818567 1600.21010513 1988.392934 1600.21714609 1985.8276825 1600.22424316 C1978.37305447 1600.24186827 1970.91845578 1600.24823028 1963.46380854 1600.24956322 C1961.36610423 1600.25000186 1959.26840041 1600.25086748 1957.17069626 1600.25178528 C1916.4957534 1600.26632089 1875.91837477 1600.03943339 1835.3203125 1597.22784424 C1831.94717234 1596.9963749 1828.5734043 1596.77766923 1825.19921875 1596.56201172 C1722.67677145 1589.95403878 1620.5471022 1575.30611204 1479 1543 C1478.04617432 1542.76943909 1477.09234863 1542.53887817 1476.10961914 1542.30133057 C1426.82446975 1530.37129871 1378.13080889 1515.93436452 1330 1500 C1328.61672516 1499.54267487 1328.61672516 1499.54267487 1327.20550537 1499.07611084 C1253.75167618 1474.75922221 1182.11209959 1445.68977834 1112 1413 C1110.67794262 1412.38515609 1109.35583813 1411.77041347 1108.03369141 1411.15576172 C1082.28920012 1399.18020013 1056.74678164 1386.82758594 1031.70117188 1373.44042969 C1029.08743065 1372.04662336 1026.46972995 1370.66045041 1023.85098267 1369.27607727 C1008.7670111 1361.30005585 993.78325091 1353.18513728 978.97705078 1344.70117188 C975.77032151 1342.86875515 972.55561119 1341.05088019 969.33984375 1339.234375 C953.26993313 1330.14241578 937.43516611 1320.70659253 921.70245361 1311.04425049 C918.91770166 1309.33614017 916.12837546 1307.63552417 913.33984375 1305.93359375 C902.97089316 1299.59452096 892.63614236 1293.19983695 882.375 1286.6875 C881.39692383 1286.06955566 880.41884766 1285.45161133 879.41113281 1284.81494141 C873.35682894 1280.94090208 867.43068355 1276.92336137 861.56182861 1272.77293396 C857.97221294 1270.2366607 854.36633968 1267.72392634 850.76080322 1265.21035767 C848.97173947 1263.95201563 847.19124269 1262.68139837 845.41986084 1261.39828491 C842.91588955 1259.58524248 840.38594057 1257.81532662 837.84765625 1256.05078125 C837.10368088 1255.49548737 836.35970551 1254.94019348 835.59318542 1254.36807251 C832.41756668 1252.20902205 830.33096248 1250.85511795 826.4223175 1251.28059387 C823.84863811 1252.02636314 821.45474299 1252.9294726 819 1254 C818.00234619 1254.38164307 817.00469238 1254.76328613 815.97680664 1255.15649414 C814.7063147 1255.71518188 814.7063147 1255.71518188 813.41015625 1256.28515625 C812.40202881 1256.72359863 811.39390137 1257.16204102 810.35522461 1257.61376953 C809.26862549 1258.09185059 808.18202637 1258.56993164 807.0625 1259.0625 C804.56585935 1260.14632085 802.06860944 1261.22860794 799.5703125 1262.30859375 C798.89924973 1262.59911621 798.22818695 1262.88963867 797.53678894 1263.18896484 C788.53599102 1267.07750083 779.48478189 1270.84624771 770.4375 1274.625 C768.58991259 1275.39718678 766.74233783 1276.16940385 764.89477539 1276.94165039 C761.13561001 1278.51267024 757.37621331 1280.08313514 753.61669922 1281.65332031 C745.46677787 1285.05768437 737.31993496 1288.46940067 729.17294312 1291.88076782 C724.69610474 1293.75533879 720.21917082 1295.62968148 715.7421875 1297.50390625 C714.85482407 1297.87539291 713.96746063 1298.24687958 713.0532074 1298.62962341 C707.69898434 1300.87089003 702.34415168 1303.11069314 696.98883057 1305.34933472 C677.81158268 1313.36591647 658.64515821 1321.40704842 639.5 1329.5 C619.46685735 1337.9683162 599.40951664 1346.3777749 579.34277344 1354.76611328 C573.9804615 1357.00786813 568.61900937 1359.25167369 563.2578125 1361.49609375 C561.92689575 1362.05327087 561.92689575 1362.05327087 560.5690918 1362.6217041 C557.87938038 1363.74776894 555.18968666 1364.87387603 552.5 1366 C532.77741519 1374.25749552 532.77741519 1374.25749552 522.98875427 1378.34936523 C502.97729381 1386.71467957 482.98061532 1395.11343241 463.00445557 1403.56271362 C447.34894868 1410.18267414 431.66535613 1416.73339005 415.97061157 1423.25970459 C401.46095125 1429.29427028 386.97188605 1435.37542263 372.5 1441.5 C356.01329261 1448.47726023 339.49941699 1455.38666099 322.96923828 1462.26025391 C308.46003748 1468.29464011 293.97143182 1474.37561487 279.5 1480.5 C264.02092683 1487.05082419 248.51986044 1493.54640717 233 1500 C217.37671711 1506.49689808 201.77115867 1513.03360726 186.1875 1519.625 C166.25930701 1528.05358939 146.30606158 1536.42103168 126.34277344 1544.76611328 C117.39375023 1548.50731977 108.4470474 1552.25407159 99.5 1556 C95.938825 1557.49094017 92.37762747 1558.98182649 88.81640625 1560.47265625 C87.93305099 1560.84245605 87.04969574 1561.21225586 86.13957214 1561.59326172 C80.59402715 1563.91462485 75.04803252 1566.23491049 69.50170898 1568.55441284 C66.66885637 1569.73918773 63.83612817 1570.92425967 61.00341797 1572.109375 C57.33753776 1573.64303263 53.67113795 1575.17543871 50.00439453 1576.70703125 C42.26873342 1579.94034875 34.53889771 1583.18422981 26.83984375 1586.50390625 C25.04365601 1587.27553101 25.04365601 1587.27553101 23.21118164 1588.06274414 C21.08627326 1588.97817302 18.96404574 1589.89986847 16.84545898 1590.82983398 C4.26244756 1596.24677032 -6.91976442 1597.8889456 -20 1593 C-31.0677278 1587.81351734 -37.23655131 1580.08190748 -42 1569 C-45.1483643 1559.5549071 -43.53358784 1549.17381788 -40.1015625 1540.078125 C-39.79251984 1539.22837601 -39.48347717 1538.37862701 -39.16506958 1537.50312805 C-38.12566805 1534.66270633 -37.06470787 1531.83102686 -36 1529 C-35.62653442 1527.99871063 -35.25306885 1526.99742126 -34.86828613 1525.96578979 C-31.90543865 1518.02634008 -28.89337297 1510.10597129 -25.875 1502.1875 C-24.90341239 1499.63364508 -23.93258994 1497.07949941 -22.96166992 1494.52539062 C-15.55696851 1475.0524579 -8.12424562 1455.59016437 -0.68701172 1436.12963867 C5.05917458 1421.09292524 10.7865633 1406.04918571 16.5 1391 C23.08360998 1373.65877887 29.69070081 1356.32667293 36.3125 1339 C43.56961609 1320.01054622 50.79650862 1301.00985875 58 1282 C65.63755277 1261.84466259 73.30497271 1241.70099839 80.99935913 1221.56729126 C88.08342791 1203.03006252 95.1429421 1184.48363896 102.18823242 1165.93164062 C102.96532138 1163.88541262 103.74242088 1161.83918862 104.51953125 1159.79296875 C104.89838974 1158.79538544 105.27724823 1157.79780212 105.66758728 1156.76998901 C109.76216056 1145.99035645 113.86861451 1135.21525888 117.97564697 1124.44036865 C121.81597446 1114.36463207 125.65220191 1104.28735718 129.48046875 1094.20703125 C129.8632901 1093.19901459 130.24611145 1092.19099792 130.64053345 1091.1524353 C131.42572612 1089.08486145 132.21091283 1087.01728534 132.99609375 1084.94970703 C140.58467033 1064.96749206 148.19778619 1044.9947797 155.82659912 1025.02789307 C162.96724874 1006.33749839 170.08425069 987.63823087 177.1875 968.93359375 C177.96483345 966.88671484 178.7421771 964.8398398 179.51953125 962.79296875 C179.89840485 961.79534515 180.27727844 960.79772156 180.66763306 959.76986694 C184.76219278 948.99027571 188.86862999 938.21521827 192.97564697 927.44036865 C196.81597446 917.36463207 200.65220191 907.28735718 204.48046875 897.20703125 C204.8632901 896.19901459 205.24611145 895.19099792 205.64053345 894.1524353 C206.42572612 892.08486145 207.21091283 890.01728534 207.99609375 887.94970703 C215.58633023 867.96312122 223.20098641 847.98599172 230.83163452 828.01480103 C237.07138992 811.68295184 243.29429733 795.34481748 249.5 779 C256.03210281 761.79643244 262.57954729 744.59877164 269.14257812 727.40698242 C270.08264965 724.94446699 271.02259289 722.48190257 271.96240234 720.01928711 C273.2674461 716.59992274 274.57306612 713.18077905 275.87890625 709.76171875 C276.46189232 708.23414192 276.46189232 708.23414192 277.05665588 706.67570496 C277.41637985 705.73431168 277.77610382 704.7929184 278.14672852 703.82299805 C278.45804214 703.00784225 278.76935577 702.19268646 279.09010315 701.35282898 C279.73889248 699.67517691 280.42237898 698.01077176 281.12870789 696.35652161 C282.21884727 693.40809941 281.95410654 691.97146095 281 689 C279.82529759 686.69524268 279.82529759 686.69524268 278.296875 684.4375 C277.45515747 683.13594971 277.45515747 683.13594971 276.59643555 681.80810547 C275.98711182 680.88143066 275.37778809 679.95475586 274.75 679 C273.45855291 677.00330391 272.16821268 675.00589153 270.87890625 673.0078125 C270.2255127 671.99879883 269.57211914 670.98978516 268.89892578 669.95019531 C263.81004972 662.04405256 258.91471665 654.01507814 254 646 C253.34628418 644.93507324 252.69256836 643.87014648 252.01904297 642.77294922 C228.53441657 604.46403043 206.50765229 565.30108915 185.81640625 525.4140625 C184.09017738 522.08761539 182.35197511 518.76850271 180.58984375 515.4609375 C168.22299463 492.24144186 156.62778819 468.64338285 145.70117188 444.71435547 C144.2138153 441.46062741 142.71079726 438.21434072 141.20446777 434.96936035 C108.19905582 363.84595785 80.32637598 290.51293046 56 216 C55.74025391 215.20591736 55.48050781 214.41183472 55.21289062 213.59368896 C0 44.66954487 0 44.66954487 0 0 Z " fill="#5B5B5D" transform="translate(43,2400)"/>
<path d="M0 0 C6.05427272 0.00767394 12.10852274 -0.0021947 18.16279215 -0.00973 C28.75313675 -0.02052286 39.34342963 -0.0203645 49.93377251 -0.01258852 C61.2849607 -0.00430492 72.63612196 -0.00261754 83.98731179 -0.00880052 C84.70700531 -0.00918804 85.42669883 -0.00957556 86.16820124 -0.00997482 C89.09989419 -0.01157482 92.03158711 -0.01322097 94.96328001 -0.01492565 C122.20562306 -0.03075485 149.44794808 -0.03188696 176.69029374 -0.02348329 C177.49589071 -0.02323491 178.30148767 -0.02298652 179.13149667 -0.02273061 C180.34184905 -0.02235742 180.34184905 -0.02235742 181.576653 -0.0219767 C206.19608856 -0.01439604 230.81551667 -0.01245813 255.43495316 -0.01604463 C257.0859509 -0.01627707 258.73694865 -0.01650854 260.38794639 -0.01673904 C267.02323863 -0.01767051 273.65853086 -0.01862651 280.29382308 -0.01961833 C298.84023313 -0.02236886 317.38664321 -0.02408103 335.93305344 -0.02497675 C336.77749228 -0.02501768 337.62193112 -0.02505862 338.49195902 -0.0251008 C365.38453098 -0.02632796 392.27710034 -0.02295146 419.16967148 -0.01642801 C420.47731328 -0.01611189 420.47731328 -0.01611189 421.81137209 -0.01578938 C435.96667308 -0.01235487 450.12197401 -0.00869633 464.27727493 -0.00501886 C520.41282391 0.00954925 576.54835142 0.00887306 632.6839003 -0.00571062 C646.83219791 -0.00937443 660.98049552 -0.01300768 675.12879319 -0.01642801 C676.00004976 -0.01663936 676.87130633 -0.0168507 677.76896461 -0.01706845 C704.63444716 -0.02354058 731.49992792 -0.02627915 758.36541123 -0.02497675 C759.20922372 -0.02493599 760.05303622 -0.02489524 760.92241879 -0.02485325 C779.4484996 -0.02391567 797.97458023 -0.02201445 816.50066086 -0.01924524 C823.12988935 -0.01825789 829.75911784 -0.01731863 836.38834634 -0.01639311 C838.0374051 -0.01616094 839.68646385 -0.01592475 841.33552261 -0.01568452 C865.94600756 -0.01210914 890.5564841 -0.01514255 915.166968 -0.02273061 C916.37536345 -0.02310319 916.37536345 -0.02310319 917.60817093 -0.02348329 C918.81432028 -0.02385536 918.81432028 -0.02385536 920.04483629 -0.02423495 C947.21136663 -0.03252359 974.3778754 -0.02943748 1001.54440267 -0.01364106 C1004.46665272 -0.01198413 1007.38890279 -0.010374 1010.31115288 -0.00880052 C1011.0282839 -0.0084099 1011.74541491 -0.00801928 1012.48427717 -0.00761683 C1023.80069295 -0.0017192 1035.1170817 -0.00579844 1046.43349503 -0.01410754 C1057.58353285 -0.02207907 1068.73352585 -0.0189429 1079.88356165 -0.00506528 C1085.83819603 0.00204536 1091.79272894 0.00456497 1097.74736 -0.00628323 C1143.85491014 -0.08399303 1143.85491014 -0.08399303 1164.64923234 3.38540266 C1166.33112453 3.66470385 1166.33112453 3.66470385 1168.04699434 3.94964748 C1203.18882059 9.86019608 1235.89889521 21.36923659 1267.64923234 37.38540266 C1268.38995987 37.75520247 1269.13068741 38.12500227 1269.89386124 38.50600813 C1294.21286271 50.71018007 1316.26276045 66.98139534 1336.32501359 85.27993391 C1338.36197158 87.12517822 1340.43194081 88.91621936 1342.52423234 90.69790266 C1346.05325641 93.77595611 1349.39335097 97.02153071 1352.71173234 100.32290266 C1353.19432511 100.80090315 1353.67691788 101.27890364 1354.17413468 101.77138899 C1358.19486658 105.8090717 1361.93902358 110.06258404 1365.64923234 114.38540266 C1366.46170426 115.32984236 1366.46170426 115.32984236 1367.29058976 116.29336165 C1385.79321128 137.96706077 1401.52092934 161.71510974 1413.7385878 187.48745344 C1414.65299574 189.39324628 1415.60227845 191.27808752 1416.55938859 193.16274641 C1430.43889141 220.92521848 1438.85134677 251.79888219 1443.64923234 282.38540266 C1443.79876359 283.28839094 1443.94829484 284.19137923 1444.10235734 285.12173079 C1457.70400119 370.42514375 1434.04436035 459.99555775 1384.08673234 529.76040266 C1378.62006866 537.28132971 1372.80728622 544.4233018 1366.64923234 551.38540266 C1365.90286515 552.23102766 1365.15649796 553.07665266 1364.38751359 553.94790266 C1362.15940688 556.44402221 1359.90728546 558.91635113 1357.64923234 561.38540266 C1356.66731077 562.47250611 1355.68554907 563.55975398 1354.70391984 564.64712141 C1349.91555147 569.92519212 1345.16747232 575.0815849 1339.68829484 579.65884016 C1337.20472605 581.76178538 1334.84372427 583.98065945 1332.46173234 586.19790266 C1326.47118558 591.64609539 1320.16538121 596.5915916 1313.64923234 601.38540266 C1313.01775284 601.85204329 1312.38627335 602.31868391 1311.73565812 602.79946516 C1254.17490938 645.08322657 1185.15007247 667.58873914 1113.81144089 667.51683043 C1111.80459807 667.51848239 1109.79775556 667.52056972 1107.79091359 667.52305053 C1102.27924494 667.52859703 1096.76759188 667.52794847 1091.25592133 667.52627294 C1085.25815372 667.5255402 1079.26039044 667.53056865 1073.26262469 667.53484796 C1062.75124664 667.54153916 1052.23987197 667.54452507 1041.72849221 667.54498289 C1030.45247566 667.54548585 1019.17646269 667.54813857 1007.90044732 667.55339049 C1006.83106781 667.55388569 1006.83106781 667.55388569 1005.74008468 667.55439089 C1002.83631307 667.55574094 999.93254146 667.55710361 997.02876986 667.558483 C962.67688466 667.5747721 928.32500016 667.58117011 893.97311175 667.58593087 C876.86090501 667.58831572 859.74869866 667.59201954 842.63649223 667.59596796 C787.71960519 667.60863198 732.80271817 667.61941534 677.8858297 667.62280842 C675.26190022 667.62297066 672.63797075 667.62313622 670.01404127 667.62330281 C664.75188879 667.6236366 659.48973631 667.62396708 654.22758383 667.62429736 C648.06715024 667.62468426 641.90671664 667.62507386 635.74628305 667.62546843 C633.98313057 667.62558085 632.21997809 667.62569227 630.45682561 667.62580268 C573.8518098 667.62935076 517.2468067 667.6444239 460.64179574 667.66774043 C419.95966142 667.68449128 379.27752951 667.69996099 338.5953917 667.70447539 C337.75802659 667.70456887 336.92066149 667.70466236 336.05792168 667.70475868 C317.67187895 667.70677813 299.28583626 667.70793384 280.89979342 667.70828726 C274.3200921 667.70842343 267.74039078 667.70863241 261.16068946 667.70888051 C259.523909 667.70894208 257.88712855 667.7090004 256.25034809 667.70905546 C230.21180229 667.70997378 204.1732698 667.71992388 178.13472837 667.73451295 C151.89140765 667.74915785 125.64810321 667.75415293 99.40477912 667.74609341 C95.76999755 667.74497819 92.13521596 667.74396749 88.50043435 667.74301909 C87.7879869 667.74282912 87.07553946 667.74263915 86.34150269 667.74244343 C75.10767544 667.73972081 63.87387851 667.74701611 52.64005784 667.75859246 C41.56563086 667.7697926 30.49123809 667.76985757 19.41680813 667.75922227 C13.50451111 667.75385039 7.59231834 667.75305468 1.68003011 667.76573099 C-61.85301029 667.89320389 -119.34270244 657.59404901 -176.35076766 628.38540266 C-177.24682723 627.92633528 -178.14288681 627.4672679 -179.0660997 626.99428938 C-195.96041175 618.22490311 -211.49578151 607.24543193 -226.35076766 595.38540266 C-227.26858016 594.66094954 -228.18639266 593.93649641 -229.13201766 593.19009016 C-246.30935253 579.41860617 -262.83060669 563.77904041 -276.35076766 546.38540266 C-277.22754613 545.32916071 -278.10798344 544.27594889 -278.99139266 543.22524641 C-292.76482908 526.70040378 -304.4217541 508.44654402 -314.35076766 489.38540266 C-314.6897911 488.74828352 -315.02881454 488.11116438 -315.37811141 487.4547386 C-333.86656481 452.65400191 -345.35419822 414.40685111 -350.35076766 375.38540266 C-350.46791122 374.49240462 -350.58505477 373.59940657 -350.70574813 372.67934798 C-354.30263279 343.8935816 -353.38133003 314.05107801 -349.35076766 285.38540266 C-349.2168663 284.40184798 -349.08296493 283.41829329 -348.94500595 282.40493391 C-339.81155707 217.48548637 -308.5891051 149.79005404 -260.91326766 103.94790266 C-259.18011168 102.21474668 -257.6187072 100.38351618 -256.03826766 98.51040266 C-252.61824421 94.54836657 -248.85718756 91.10689365 -244.92889266 87.65493391 C-243.29450937 86.21618134 -241.67742347 84.75733506 -240.08514266 83.27212141 C-220.44660022 65.00293312 -197.20145684 49.55839817 -173.35076766 37.38540266 C-172.43811141 36.91682844 -171.52545516 36.44825423 -170.58514266 35.96548079 C-142.89899646 21.88436542 -113.8851595 11.69269086 -83.41326766 5.63540266 C-82.48764022 5.4487303 -81.56201278 5.26205794 -80.60833602 5.06972883 C-77.91807396 4.56706807 -75.22438068 4.12918242 -72.51892208 3.71734386 C-71.04140181 3.49113772 -69.56495604 3.2578258 -68.08953797 3.01829102 C-45.50608841 -0.53406997 -22.79368658 -0.04152572 0 0 Z M-35.22625595 201.06997298 C-69.24457157 238.14532409 -87.18321396 289.96833802 -85.46014266 340.03432844 C-82.89617331 395.14822338 -59.50027909 444.95261517 -19.29119735 482.64468001 C20.48544396 518.32755023 73.4553932 536.26548341 126.64923234 533.38540266 C164.98430421 530.57376096 200.44185215 517.76820987 231.64923234 495.38540266 C232.24332902 494.96774641 232.83742569 494.55009016 233.4495253 494.11977766 C249.9002674 482.44841903 265.32730158 467.06503279 276.64923234 450.38540266 C277.08880265 449.74715559 277.52837296 449.10890852 277.98126359 448.45132063 C284.78633694 438.51788195 290.622923 428.32368975 295.64923234 417.38540266 C296.19321671 416.20204329 296.73720109 415.01868391 297.29766984 413.79946516 C304.25434208 398.08515476 308.42857966 382.20817354 311.64923234 365.38540266 C311.78490616 364.69430403 311.92057999 364.0032054 312.06036515 363.29116438 C321.23518353 314.40618139 306.56735645 261.13189862 279.14141984 220.54116438 C260.01457482 192.90863141 234.56158637 170.62443882 204.64923234 155.38540266 C204.03724991 155.06523176 203.42526749 154.74506087 202.79474015 154.41518782 C121.97420153 112.39298533 25.49864858 137.16430297 -35.22625595 201.06997298 Z M840.07891984 191.95962141 C838.54038546 193.49568226 836.98130374 195.01165807 835.39532609 196.49868391 C800.39878148 229.83718579 781.96052727 280.80651169 780.46563859 328.37368391 C779.39949489 383.05086307 800.00351653 434.01881607 837.64923234 473.38540266 C838.52321671 474.3122386 839.39720109 475.23907454 840.29766984 476.19399641 C847.21622717 483.34587753 854.63896027 489.51683351 862.64923234 495.38540266 C863.21561417 495.80144758 863.78199601 496.21749251 864.36554093 496.64614485 C906.56087891 527.18176677 959.58185601 538.94997439 1010.87579484 531.35415266 C1046.48560025 525.59566759 1080.23041622 511.05422084 1107.64923234 487.38540266 C1108.40591202 486.73829329 1109.16259171 486.09118391 1109.94220109 485.42446516 C1112.56055254 483.12646666 1115.11145369 480.77224841 1117.64923234 478.38540266 C1118.4949379 477.59069563 1118.4949379 477.59069563 1119.35772843 476.77993391 C1154.90838515 443.09339201 1177.82317693 394.42065397 1179.77349991 345.25259016 C1181.12840317 287.19729272 1162.36451301 235.79675103 1122.52032609 193.35805891 C1089.46872904 158.79848979 1040.20382498 135.32895704 992.15554947 134.21717451 C934.4549326 133.23460306 881.45547686 150.52018209 840.07891984 191.95962141 Z " fill="#3AB151" transform="translate(1454.3507676646113,1199.6145973373204)"/>
</svg>
